<svg width="90" height="45" viewBox="0 0 90 45" fill="none" xmlns="http://www.w3.org/2000/svg">
<path d="M12.9636 0.489685V18.7465H10.4217L2.98864 6.31082H2.85769V18.7465H0V0.489685H2.55729L9.98267 12.9342H10.1213V0.489685H12.9636Z" fill="#345397"/>
<path d="M23.4951 12.9877V5.05388H26.2835V18.7465H23.5798V16.3128H23.4566C23.1896 17.0795 22.7505 17.7064 22.1394 18.1938C21.5335 18.6811 20.7863 18.9247 19.8979 18.9247C19.1225 18.9247 18.437 18.7257 17.8413 18.3275C17.2508 17.9234 16.7886 17.338 16.4548 16.5713C16.1211 15.7988 15.9542 14.8657 15.9542 13.7722V5.05388H18.7425V13.273C18.7425 14.1407 18.9479 14.83 19.3588 15.3411C19.7696 15.8522 20.3087 16.1078 20.9763 16.1078C21.3871 16.1078 21.7851 15.9919 22.1702 15.7601C22.5554 15.5283 22.8712 15.1837 23.1177 14.726C23.3693 14.2625 23.4951 13.6831 23.4951 12.9877Z" fill="#345397"/>
<path d="M39.7189 5.05388L35.5055 18.7465H32.4244L28.2111 5.05388H31.1843L33.9033 15.2253H34.0266L36.7533 5.05388H39.7189Z" fill="#345397"/>
<path d="M44.714 19.0228C43.9643 19.0228 43.289 18.8683 42.6882 18.5593C42.0926 18.2443 41.6201 17.7807 41.2709 17.1686C40.9269 16.5565 40.7549 15.8017 40.7549 14.9043C40.7549 14.1318 40.8781 13.4929 41.1246 12.9877C41.3711 12.4826 41.7074 12.0785 42.1336 11.7754C42.5599 11.4723 43.04 11.2435 43.574 11.089C44.1132 10.9285 44.6704 10.8126 45.2455 10.7413C45.9388 10.6581 46.5011 10.5838 46.9324 10.5184C47.3638 10.4471 47.677 10.3401 47.8721 10.1975C48.0724 10.0489 48.1725 9.82013 48.1725 9.5111V9.45761C48.1725 8.78606 48.0005 8.26605 47.6565 7.89759C47.3124 7.52912 46.8169 7.34489 46.1698 7.34489C45.4869 7.34489 44.9451 7.51724 44.5446 7.86193C44.1492 8.20662 43.8821 8.61371 43.7435 9.08321L41.14 8.65531C41.3454 7.8233 41.6843 7.12797 42.1567 6.56933C42.6292 6.00475 43.2069 5.5828 43.8899 5.30348C44.5728 5.01822 45.3277 4.87559 46.1544 4.87559C46.7244 4.87559 47.2919 4.95285 47.8567 5.10737C48.4216 5.26188 48.9377 5.51743 49.405 5.87401C49.8723 6.22464 50.2471 6.70305 50.5296 7.30923C50.8171 7.91541 50.9609 8.67314 50.9609 9.58241V18.7465H48.2804V16.8655H48.1879C48.0185 17.2459 47.7797 17.6024 47.4716 17.9352C47.1686 18.2621 46.7861 18.5266 46.3239 18.7286C45.8669 18.9247 45.3302 19.0228 44.714 19.0228ZM45.4381 16.6516C45.9978 16.6516 46.4831 16.5238 46.8939 16.2682C47.3047 16.0068 47.6205 15.6621 47.8413 15.2342C48.0673 14.8063 48.1802 14.3398 48.1802 13.8346V12.2211C48.0929 12.3043 47.944 12.3815 47.7335 12.4529C47.5281 12.5242 47.297 12.5866 47.0402 12.6401C46.7835 12.6936 46.5293 12.7411 46.2777 12.7827C46.0261 12.8243 45.8078 12.86 45.623 12.8897C45.207 12.955 44.8347 13.062 44.5061 13.2106C44.1774 13.3592 43.9181 13.5672 43.7281 13.8346C43.5381 14.0961 43.4431 14.4348 43.4431 14.8508C43.4431 15.4451 43.6305 15.8938 44.0054 16.1969C44.3803 16.5 44.8578 16.6516 45.4381 16.6516Z" fill="#345397"/>
<path d="M56.5531 10.7235V18.7465H53.7647V5.05388H56.4298V7.38055H56.5685C56.8406 6.61391 57.2745 6.00475 57.8702 5.55309C58.471 5.10142 59.213 4.87559 60.0963 4.87559C60.9128 4.87559 61.624 5.07765 62.2299 5.48177C62.841 5.88589 63.3134 6.47127 63.6472 7.23792C63.9861 8.00456 64.153 8.93463 64.1479 10.0281V18.7465H61.3595V10.5273C61.3595 9.61213 61.1541 8.896 60.7433 8.37896C60.3376 7.86193 59.7753 7.60341 59.0564 7.60341C58.5686 7.60341 58.1347 7.72821 57.7547 7.97782C57.3798 8.22148 57.0845 8.57508 56.8689 9.03863C56.6583 9.50218 56.5531 10.0638 56.5531 10.7235Z" fill="#345397"/>
<path d="M72.1433 19.0139C70.9622 19.0139 69.948 18.7138 69.1007 18.1135C68.2586 17.5133 67.609 16.6843 67.1519 15.6264C66.7 14.5626 66.4741 13.3384 66.4741 11.9537C66.4741 10.563 66.7052 9.33578 67.1673 8.27199C67.6295 7.20226 68.2817 6.37024 69.1238 5.77595C69.9711 5.17571 70.9725 4.87559 72.1279 4.87559C73.0881 4.87559 73.938 5.08062 74.6775 5.49069C75.422 5.89481 76.0152 6.4683 76.4568 7.21117C76.8984 7.9481 77.15 8.80983 77.2116 9.79636H74.5465C74.4387 9.13669 74.1819 8.58697 73.7762 8.14719C73.3757 7.70147 72.8391 7.47861 72.1664 7.47861C71.5964 7.47861 71.0957 7.6569 70.6644 8.01347C70.233 8.36411 69.8967 8.86926 69.6553 9.52893C69.4191 10.1886 69.301 10.979 69.301 11.9002C69.301 12.8332 69.4191 13.6355 69.6553 14.3071C69.8915 14.9727 70.2227 15.4867 70.6489 15.8493C71.0803 16.2058 71.5861 16.3841 72.1664 16.3841C72.5772 16.3841 72.9444 16.295 73.2679 16.1167C73.5965 15.9325 73.8712 15.668 74.092 15.3233C74.3129 14.9786 74.4643 14.5596 74.5465 14.0664H77.2116C77.1449 15.0351 76.8984 15.8938 76.4722 16.6427C76.046 17.3855 75.4657 17.9679 74.7314 18.3899C73.997 18.8059 73.1343 19.0139 72.1433 19.0139Z" fill="#345397"/>
<path d="M84.7391 19.0139C83.5529 19.0139 82.5284 18.7286 81.6657 18.1581C80.8081 17.5816 80.1483 16.7675 79.6861 15.7155C79.224 14.6577 78.9929 13.4127 78.9929 11.9804C78.9929 10.5719 79.224 9.33578 79.6861 8.27199C80.1534 7.20226 80.8056 6.37024 81.6426 5.77595C82.4796 5.17571 83.463 4.87559 84.5927 4.87559C85.3219 4.87559 86.01 5.01228 86.657 5.28565C87.3092 5.55309 87.8843 5.96909 88.3824 6.53368C88.8857 7.09826 89.2811 7.81736 89.5686 8.69097C89.8562 9.55864 90 10.5927 90 11.7932V12.7827H80.3023V10.6076H87.3272C87.322 9.98951 87.2065 9.43978 86.9806 8.9584C86.7546 8.47108 86.4388 8.08776 86.0331 7.80844C85.6326 7.52912 85.1653 7.38946 84.6312 7.38946C84.0612 7.38946 83.5606 7.54992 83.1292 7.87084C82.6979 8.18582 82.3615 8.60183 82.1202 9.11886C81.8839 9.62996 81.7633 10.1916 81.7581 10.8037V12.7025C81.7581 13.4988 81.8839 14.1823 82.1356 14.7528C82.3872 15.3174 82.7389 15.7512 83.1908 16.0543C83.6427 16.3514 84.1716 16.5 84.7776 16.5C85.1833 16.5 85.5504 16.4346 85.8791 16.3039C86.2077 16.1672 86.4927 15.9681 86.7341 15.7066C86.9754 15.4451 87.1577 15.1213 87.281 14.735L89.8845 15.0737C89.7201 15.8701 89.4069 16.5654 88.9447 17.1597C88.4877 17.748 87.9023 18.2057 87.1885 18.5325C86.4747 18.8534 85.6583 19.0139 84.7391 19.0139Z" fill="#345397"/>
<path d="M0 44.2133V25.9566H2.85769V33.6854H10.1675V25.9566H13.0329V44.2133H10.1675V36.4578H2.85769V44.2133H0Z" fill="#345397"/>
<path d="M21.2555 44.4808C20.0693 44.4808 19.0449 44.1955 18.1822 43.625C17.3246 43.0485 16.6647 42.2343 16.2026 41.1824C15.7404 40.1246 15.5093 38.8795 15.5093 37.4473C15.5093 36.0388 15.7404 34.8027 16.2026 33.7389C16.6699 32.6691 17.322 31.8371 18.1591 31.2428C18.9961 30.6426 19.9795 30.3425 21.1092 30.3425C21.8384 30.3425 22.5265 30.4792 23.1735 30.7525C23.8257 31.02 24.4008 31.436 24.8989 32.0006C25.4021 32.5651 25.7975 33.2842 26.0851 34.1578C26.3727 35.0255 26.5165 36.0596 26.5165 37.2601V38.2496H16.8188V36.0745H23.8436C23.8385 35.4564 23.723 34.9067 23.497 34.4253C23.2711 33.938 22.9553 33.5546 22.5496 33.2753C22.149 32.996 21.6818 32.8563 21.1477 32.8563C20.5777 32.8563 20.077 33.0168 19.6457 33.3377C19.2143 33.6527 18.878 34.0687 18.6366 34.5857C18.4004 35.0968 18.2797 35.6584 18.2746 36.2706V38.1693C18.2746 38.9657 18.4004 39.6491 18.652 40.2197C18.9037 40.7842 19.2554 41.2181 19.7073 41.5212C20.1592 41.8183 20.6881 41.9669 21.2941 41.9669C21.6997 41.9669 22.0669 41.9015 22.3955 41.7708C22.7242 41.6341 23.0092 41.435 23.2505 41.1735C23.4919 40.912 23.6742 40.5881 23.7974 40.2018L26.4009 40.5406C26.2366 41.3369 25.9234 42.0323 25.4612 42.6266C25.0042 43.2149 24.4188 43.6725 23.705 43.9994C22.9912 44.3203 22.1747 44.4808 21.2555 44.4808Z" fill="#345397"/>
<path d="M32.28 44.4897C31.5303 44.4897 30.855 44.3352 30.2542 44.0261C29.6585 43.7112 29.1861 43.2476 28.8369 42.6355C28.4928 42.0234 28.3208 41.2686 28.3208 40.3712C28.3208 39.5986 28.4441 38.9598 28.6905 38.4546C28.937 37.9495 29.2734 37.5453 29.6996 37.2422C30.1258 36.9392 30.6059 36.7104 31.14 36.5558C31.6792 36.3954 32.2363 36.2795 32.8115 36.2082C33.5047 36.125 34.067 36.0507 34.4984 35.9853C34.9297 35.914 35.243 35.807 35.4381 35.6644C35.6384 35.5158 35.7385 35.287 35.7385 34.978V34.9245C35.7385 34.2529 35.5665 33.7329 35.2224 33.3645C34.8784 32.996 34.3828 32.8118 33.7358 32.8118C33.0528 32.8118 32.5111 32.9841 32.1105 33.3288C31.7151 33.6735 31.4481 34.0806 31.3095 34.5501L28.7059 34.1222C28.9114 33.2902 29.2503 32.5948 29.7227 32.0362C30.1951 31.4716 30.7728 31.0497 31.4558 30.7704C32.1388 30.4851 32.8936 30.3425 33.7204 30.3425C34.2904 30.3425 34.8578 30.4197 35.4227 30.5742C35.9875 30.7288 36.5036 30.9843 36.9709 31.3409C37.4382 31.6915 37.8131 32.1699 38.0955 32.7761C38.3831 33.3823 38.5269 34.14 38.5269 35.0493V44.2133H35.8463V42.3324H35.7539C35.5844 42.7127 35.3457 43.0693 35.0375 43.4021C34.7346 43.729 34.352 43.9934 33.8899 44.1955C33.4328 44.3916 32.8962 44.4897 32.28 44.4897ZM33.004 42.1184C33.5638 42.1184 34.049 41.9907 34.4599 41.7351C34.8707 41.4736 35.1865 41.1289 35.4073 40.701C35.6332 40.2732 35.7462 39.8066 35.7462 39.3015V37.688C35.6589 37.7712 35.51 37.8484 35.2994 37.9197C35.094 37.9911 34.863 38.0535 34.6062 38.1069C34.3494 38.1604 34.0953 38.208 33.8436 38.2496C33.592 38.2912 33.3738 38.3268 33.1889 38.3565C32.773 38.4219 32.4007 38.5289 32.072 38.6775C31.7434 38.826 31.484 39.034 31.2941 39.3015C31.104 39.563 31.0091 39.9017 31.0091 40.3177C31.0091 40.912 31.1965 41.3607 31.5713 41.6638C31.9462 41.9669 32.4238 42.1184 33.004 42.1184Z" fill="#345397"/>
<path d="M44.119 25.9566V44.2133H41.3306V25.9566H44.119Z" fill="#345397"/>
<path d="M52.8943 30.5208V33.0168H46.0928V30.5208H52.8943ZM47.772 27.2402H50.5604V40.0949C50.5604 40.5287 50.6169 40.8615 50.7298 41.0933C50.8479 41.3191 51.002 41.4736 51.192 41.5568C51.382 41.64 51.5925 41.6816 51.8236 41.6816C51.9982 41.6816 52.1574 41.6668 52.3012 41.6371C52.4501 41.6073 52.5631 41.5806 52.6401 41.5568L53.11 44.0796C52.961 44.139 52.7479 44.2044 52.4706 44.2757C52.1985 44.347 51.8647 44.3887 51.4693 44.4005C50.7709 44.4243 50.1419 44.3025 49.5821 44.035C49.0224 43.7617 48.5782 43.3397 48.2496 42.7692C47.9261 42.1987 47.7669 41.4855 47.772 40.6297V27.2402Z" fill="#345397"/>
<path d="M58.2688 36.1903V44.2133H55.4805V25.9566H58.2072V32.8474H58.3458C58.6231 32.0748 59.0519 31.4657 59.6322 31.02C60.2176 30.5683 60.9622 30.3425 61.866 30.3425C62.6876 30.3425 63.4039 30.5416 64.015 30.9397C64.6261 31.3379 65.0985 31.9203 65.4323 32.687C65.7712 33.4536 65.9407 34.3896 65.9407 35.495V44.2133H63.1523V35.9942C63.1523 35.0731 62.9469 34.3569 62.5361 33.8458C62.1304 33.3288 61.5604 33.0703 60.8261 33.0703C60.3331 33.0703 59.8915 33.1951 59.5012 33.4447C59.1161 33.6884 58.8131 34.042 58.5923 34.5055C58.3767 34.9691 58.2688 35.5307 58.2688 36.1903Z" fill="#345397"/>
</svg>
